;TYPE=PLATED
;Layer: PTH_Through
;EasyEDA Pro v2.2.45.4, 2025-12-09 12:56:18
;Gerber Generator version 0.3
M48
METRIC,LZ,0000.00000
;Hole size 1 = 0.95000 METRIC
T01C0.95000
;Hole size 2 = 1.40000 METRIC
T02C1.40000
;Hole size 3 = 2.00000 METRIC
T03C2.00000
;Hole size 4 = 2.99999 METRIC
T04C2.99999
%
G05
G90
T01
X20.16701Y-34.16299
X22.707Y-34.123
X21.47701Y-104.12285
X25.247Y-34.123
X27.78699Y-34.123
X26.477Y-104.12285
X40.33521Y-34.23919
X42.8752Y-34.19919
X41.64521Y-104.19905
X45.4152Y-34.19919
X47.95519Y-34.19919
X46.64519Y-104.19905
X60.45201Y-34.28999
X62.992Y-34.24999
X61.762Y-104.24985
X65.532Y-34.24999
X68.07199Y-34.24999
X66.762Y-104.24985
X80.56881Y-34.28999
X83.1088Y-34.24999
X81.8788Y-104.24985
X85.6488Y-34.24999
X88.18879Y-34.24999
X86.8788Y-104.24985
T02
X61.976Y-117.475
X54.356Y-117.475
X46.736Y-117.475
T03
X62.02Y-13.6
X56.94Y-13.6
X51.86Y-13.6
X46.78Y-13.6
T04
X23.977Y-45.12297
X23.977Y-93.12288
X44.1452Y-45.19917
X44.1452Y-93.19908
X64.262Y-45.24997
X64.262Y-93.24988
X84.3788Y-45.24997
X84.3788Y-93.24988
M30