G04 Layer: BottomLayer*
G04 EasyEDA Pro v2.2.45.4, 2025-12-09 12:56:18*
G04 Gerber Generator version 0.3*
G04 Scale: 100 percent, Rotated: No, Reflected: No*
G04 Dimensions in millimeters*
G04 Leading zeros omitted, absolute positions, 4 integers and 5 decimals*
G04 Generated by one-click*
%FSLAX45Y45*%
%MOMM*%
%ADD10C,0.5*%
%ADD11C,0.254*%
%ADD12C,0.203*%
%ADD13C,1.524*%
%ADD14C,3.99999*%
%ADD15C,2.3*%
%ADD16C,2.99999*%
%ADD17C,1.2062*%
%ADD18C,1.2*%
G75*


G04 Copper Start*
G36*
G01X2970355Y-14055000D02*
G01X2804075Y-13888720D01*
G01X4466596Y-13888720D01*
G01X4468426Y-13907303D01*
G01X4473847Y-13925172D01*
G01X4482649Y-13941640D01*
G01X4494495Y-13956075D01*
G01X4508930Y-13967921D01*
G01X4525398Y-13976723D01*
G01X4543267Y-13982144D01*
G01X4561850Y-13983974D01*
G01X6172200Y-13983974D01*
G01X6190783Y-13982144D01*
G01X6208652Y-13976723D01*
G01X6225120Y-13967921D01*
G01X6239555Y-13956075D01*
G01X6251401Y-13941640D01*
G01X6260203Y-13925172D01*
G01X6265624Y-13907303D01*
G01X6267454Y-13888720D01*
G01X6267454Y-13583920D01*
G01X6265624Y-13565337D01*
G01X6260203Y-13547468D01*
G01X6251401Y-13531000D01*
G01X6239555Y-13516565D01*
G01X6225120Y-13504719D01*
G01X6208652Y-13495917D01*
G01X6190783Y-13490496D01*
G01X6172200Y-13488666D01*
G01X4561850Y-13488666D01*
G01X4543267Y-13490496D01*
G01X4525398Y-13495917D01*
G01X4508930Y-13504719D01*
G01X4494495Y-13516565D01*
G01X4482649Y-13531000D01*
G01X4473847Y-13547468D01*
G01X4468426Y-13565337D01*
G01X4466596Y-13583920D01*
G01X4466596Y-13888720D01*
G01X4466596Y-13888720D01*
G01X2804075Y-13888720D01*
G01X2115355Y-13200000D01*
G01X4247292Y-13200000D01*
G01X4249122Y-13218583D01*
G01X4254543Y-13236452D01*
G01X4263345Y-13252920D01*
G01X4275191Y-13267355D01*
G01X4289626Y-13279201D01*
G01X4306094Y-13288003D01*
G01X4323963Y-13293424D01*
G01X4342546Y-13295254D01*
G01X4880000Y-13295254D01*
G01X4898583Y-13293424D01*
G01X4916452Y-13288003D01*
G01X4932920Y-13279201D01*
G01X4947355Y-13267355D01*
G01X4959201Y-13252920D01*
G01X4968003Y-13236452D01*
G01X4973424Y-13218583D01*
G01X4975254Y-13200000D01*
G01X5856182Y-13200000D01*
G01X5858012Y-13218583D01*
G01X5863433Y-13236452D01*
G01X5872235Y-13252920D01*
G01X5884081Y-13267355D01*
G01X5898516Y-13279201D01*
G01X5914984Y-13288003D01*
G01X5932853Y-13293424D01*
G01X5951436Y-13295254D01*
G01X6480000Y-13295254D01*
G01X6498583Y-13293424D01*
G01X6516452Y-13288003D01*
G01X6532920Y-13279201D01*
G01X6547355Y-13267355D01*
G01X6559201Y-13252920D01*
G01X6568003Y-13236452D01*
G01X6573424Y-13218583D01*
G01X6575254Y-13200000D01*
G01X6575254Y-12895200D01*
G01X6573424Y-12876617D01*
G01X6568003Y-12858748D01*
G01X6559201Y-12842280D01*
G01X6547355Y-12827845D01*
G01X6532920Y-12815999D01*
G01X6516452Y-12807197D01*
G01X6498583Y-12801776D01*
G01X6480000Y-12799946D01*
G01X5951436Y-12799946D01*
G01X5932853Y-12801776D01*
G01X5914984Y-12807197D01*
G01X5898516Y-12815999D01*
G01X5884081Y-12827845D01*
G01X5872235Y-12842280D01*
G01X5863433Y-12858748D01*
G01X5858012Y-12876617D01*
G01X5856182Y-12895200D01*
G01X5856182Y-13200000D01*
G01X5856182Y-13200000D01*
G01X4975254Y-13200000D01*
G01X4975254Y-12895200D01*
G01X4973424Y-12876617D01*
G01X4968003Y-12858748D01*
G01X4959201Y-12842280D01*
G01X4947355Y-12827845D01*
G01X4932920Y-12815999D01*
G01X4916452Y-12807197D01*
G01X4898583Y-12801776D01*
G01X4880000Y-12799946D01*
G01X4342546Y-12799946D01*
G01X4323963Y-12801776D01*
G01X4306094Y-12807197D01*
G01X4289626Y-12815999D01*
G01X4275191Y-12827845D01*
G01X4263345Y-12842280D01*
G01X4254543Y-12858748D01*
G01X4249122Y-12876617D01*
G01X4247292Y-12895200D01*
G01X4247292Y-13200000D01*
G01X4247292Y-13200000D01*
G01X2115355Y-13200000D01*
G01X925360Y-12010005D01*
G01X925360Y-10412285D01*
G01X1976247Y-10412285D01*
G01X1978009Y-10436805D01*
G01X1983260Y-10460820D01*
G01X1991891Y-10483838D01*
G01X2003725Y-10505384D01*
G01X2018518Y-10525017D01*
G01X2035968Y-10542332D01*
G01X2055714Y-10556974D01*
G01X2077351Y-10568642D01*
G01X2100434Y-10577096D01*
G01X2124489Y-10582161D01*
G01X2149021Y-10583734D01*
G01X2173526Y-10581783D01*
G01X2197501Y-10576348D01*
G01X2220451Y-10567540D01*
G01X2574949Y-10567540D01*
G01X2598321Y-10576475D01*
G01X2622744Y-10581914D01*
G01X2647700Y-10583739D01*
G01X2672655Y-10581914D01*
G01X2697078Y-10576475D01*
G01X2720450Y-10567540D01*
G01X4077339Y-10567540D01*
G01X4098604Y-10578182D01*
G01X4121137Y-10585780D01*
G01X4144504Y-10590187D01*
G01X4168257Y-10591319D01*
G01X4191937Y-10589153D01*
G01X4215090Y-10583732D01*
G01X4237271Y-10575160D01*
G01X4518346Y-10575160D01*
G01X4518346Y-11605715D01*
G01X4518346Y-11605715D01*
G01X4500564Y-11628063D01*
G01X4485975Y-11652614D01*
G01X4474847Y-11678915D01*
G01X4467386Y-11706482D01*
G01X4463730Y-11734806D01*
G01X4463945Y-11763364D01*
G01X4468029Y-11791629D01*
G01X4475906Y-11819080D01*
G01X4487430Y-11845210D01*
G01X4502388Y-11869538D01*
G01X4520506Y-11891614D01*
G01X4541448Y-11911031D01*
G01X4564828Y-11927431D01*
G01X4590215Y-11940512D01*
G01X4617140Y-11950031D01*
G01X4645107Y-11955814D01*
G01X4673600Y-11957754D01*
G01X4702093Y-11955814D01*
G01X4730060Y-11950031D01*
G01X4756985Y-11940512D01*
G01X4782372Y-11927431D01*
G01X4805752Y-11911031D01*
G01X4826694Y-11891614D01*
G01X4844812Y-11869538D01*
G01X4859770Y-11845210D01*
G01X4871294Y-11819080D01*
G01X4879171Y-11791629D01*
G01X4883255Y-11763364D01*
G01X4883374Y-11747500D01*
G01X5225346Y-11747500D01*
G01X5227304Y-11776130D01*
G01X5233143Y-11804226D01*
G01X5242753Y-11831265D01*
G01X5255955Y-11856745D01*
G01X5272504Y-11880189D01*
G01X5292091Y-11901161D01*
G01X5314351Y-11919271D01*
G01X5338870Y-11934181D01*
G01X5365190Y-11945614D01*
G01X5392823Y-11953356D01*
G01X5421252Y-11957264D01*
G01X5449948Y-11957264D01*
G01X5478377Y-11953356D01*
G01X5506010Y-11945614D01*
G01X5532330Y-11934181D01*
G01X5556849Y-11919271D01*
G01X5579109Y-11901161D01*
G01X5598696Y-11880189D01*
G01X5615245Y-11856745D01*
G01X5628447Y-11831265D01*
G01X5638057Y-11804226D01*
G01X5643896Y-11776130D01*
G01X5645854Y-11747500D01*
G01X6031946Y-11747500D01*
G01X6033796Y-11772189D01*
G01X6039306Y-11796327D01*
G01X6048351Y-11819374D01*
G01X6060730Y-11840816D01*
G01X6076167Y-11860173D01*
G01X6094317Y-11877013D01*
G01X6114773Y-11890960D01*
G01X6137080Y-11901703D01*
G01X6160739Y-11909000D01*
G01X6185221Y-11912691D01*
G01X6209979Y-11912691D01*
G01X6234461Y-11909000D01*
G01X6258120Y-11901703D01*
G01X6280427Y-11890960D01*
G01X6300883Y-11877013D01*
G01X6319033Y-11860173D01*
G01X6334470Y-11840816D01*
G01X6346849Y-11819374D01*
G01X6355894Y-11796327D01*
G01X6361404Y-11772189D01*
G01X6363254Y-11747500D01*
G01X6361404Y-11722811D01*
G01X6355894Y-11698673D01*
G01X6346849Y-11675626D01*
G01X6334470Y-11654184D01*
G01X6319033Y-11634827D01*
G01X6300883Y-11617987D01*
G01X6280427Y-11604040D01*
G01X6258120Y-11593297D01*
G01X6234461Y-11586000D01*
G01X6209979Y-11582309D01*
G01X6185221Y-11582309D01*
G01X6160739Y-11586000D01*
G01X6137080Y-11593297D01*
G01X6114773Y-11604040D01*
G01X6094317Y-11617987D01*
G01X6076167Y-11634827D01*
G01X6060730Y-11654184D01*
G01X6048351Y-11675626D01*
G01X6039306Y-11698673D01*
G01X6033796Y-11722811D01*
G01X6031946Y-11747500D01*
G01X6031946Y-11747500D01*
G01X5645854Y-11747500D01*
G01X5645854Y-11747500D01*
G01X5643896Y-11718870D01*
G01X5638057Y-11690774D01*
G01X5628447Y-11663735D01*
G01X5615245Y-11638255D01*
G01X5598696Y-11614811D01*
G01X5579109Y-11593839D01*
G01X5556849Y-11575729D01*
G01X5532330Y-11560819D01*
G01X5506010Y-11549386D01*
G01X5478377Y-11541644D01*
G01X5449948Y-11537736D01*
G01X5421252Y-11537736D01*
G01X5392823Y-11541644D01*
G01X5365190Y-11549386D01*
G01X5338870Y-11560819D01*
G01X5314351Y-11575729D01*
G01X5292091Y-11593839D01*
G01X5272504Y-11614811D01*
G01X5255955Y-11638255D01*
G01X5242753Y-11663735D01*
G01X5233143Y-11690774D01*
G01X5227304Y-11718870D01*
G01X5225346Y-11747500D01*
G01X5225346Y-11747500D01*
G01X4883374Y-11747500D01*
G01X4883470Y-11734806D01*
G01X4879814Y-11706482D01*
G01X4872353Y-11678915D01*
G01X4861225Y-11652614D01*
G01X4846636Y-11628063D01*
G01X4828854Y-11605715D01*
G01X4828854Y-10575160D01*
G01X6093471Y-10575160D01*
G01X6114361Y-10584899D01*
G01X6136369Y-10591748D01*
G01X6159096Y-10595584D01*
G01X6182133Y-10596337D01*
G01X6205062Y-10593993D01*
G01X6227470Y-10588595D01*
G01X6248951Y-10580240D01*
G01X6603449Y-10580240D01*
G01X6626821Y-10589175D01*
G01X6651244Y-10594614D01*
G01X6676200Y-10596439D01*
G01X6701155Y-10594614D01*
G01X6725578Y-10589175D01*
G01X6748950Y-10580240D01*
G01X8115130Y-10580240D01*
G01X8138502Y-10589175D01*
G01X8162925Y-10594614D01*
G01X8187881Y-10596439D01*
G01X8212836Y-10594614D01*
G01X8237259Y-10589175D01*
G01X8260631Y-10580240D01*
G01X8615129Y-10580240D01*
G01X8638079Y-10589048D01*
G01X8662054Y-10594483D01*
G01X8686559Y-10596434D01*
G01X8711091Y-10594861D01*
G01X8735146Y-10589796D01*
G01X8758229Y-10581342D01*
G01X8779866Y-10569674D01*
G01X8799612Y-10555032D01*
G01X8817062Y-10537717D01*
G01X8831855Y-10518084D01*
G01X8843689Y-10496538D01*
G01X8852320Y-10473520D01*
G01X8857571Y-10449505D01*
G01X8859333Y-10424985D01*
G01X8857571Y-10400466D01*
G01X8852320Y-10376451D01*
G01X8843689Y-10353433D01*
G01X8831855Y-10331887D01*
G01X8817062Y-10312254D01*
G01X8799612Y-10294939D01*
G01X8779866Y-10280297D01*
G01X8758229Y-10268629D01*
G01X8735146Y-10260175D01*
G01X8711091Y-10255110D01*
G01X8686559Y-10253537D01*
G01X8662054Y-10255488D01*
G01X8638079Y-10260923D01*
G01X8615129Y-10269731D01*
G01X8260631Y-10269731D01*
G01X8237259Y-10260796D01*
G01X8212836Y-10255357D01*
G01X8187881Y-10253532D01*
G01X8162925Y-10255357D01*
G01X8138502Y-10260796D01*
G01X8115130Y-10269731D01*
G01X6748950Y-10269731D01*
G01X6725578Y-10260796D01*
G01X6701155Y-10255357D01*
G01X6676200Y-10253532D01*
G01X6651244Y-10255357D01*
G01X6626821Y-10260796D01*
G01X6603449Y-10269731D01*
G01X6248951Y-10269731D01*
G01X6227657Y-10261435D01*
G01X6205448Y-10256045D01*
G01X6182720Y-10253656D01*
G01X6159877Y-10254310D01*
G01X6137323Y-10257998D01*
G01X6115460Y-10264651D01*
G01X4737270Y-10264651D01*
G01X4713898Y-10255716D01*
G01X4689475Y-10250277D01*
G01X4664520Y-10248452D01*
G01X4639564Y-10250277D01*
G01X4615141Y-10255716D01*
G01X4591769Y-10264651D01*
G01X4237271Y-10264651D01*
G01X4213059Y-10255466D01*
G01X4187740Y-10250031D01*
G01X4161891Y-10248472D01*
G01X4136103Y-10250823D01*
G01X4110962Y-10257031D01*
G01X2720450Y-10257031D01*
G01X2697078Y-10248096D01*
G01X2672655Y-10242657D01*
G01X2647700Y-10240832D01*
G01X2622744Y-10242657D01*
G01X2598321Y-10248096D01*
G01X2574949Y-10257031D01*
G01X2220451Y-10257031D01*
G01X2197501Y-10248223D01*
G01X2173526Y-10242788D01*
G01X2149021Y-10240837D01*
G01X2124489Y-10242410D01*
G01X2100434Y-10247475D01*
G01X2077351Y-10255929D01*
G01X2055714Y-10267597D01*
G01X2035968Y-10282239D01*
G01X2018518Y-10299554D01*
G01X2003725Y-10319187D01*
G01X1991891Y-10340733D01*
G01X1983260Y-10363751D01*
G01X1978009Y-10387766D01*
G01X1976247Y-10412285D01*
G01X925360Y-10412285D01*
G01X925360Y-9312288D01*
G01X2102446Y-9312288D01*
G01X2104443Y-9346565D01*
G01X2110405Y-9380378D01*
G01X2120252Y-9413270D01*
G01X2133852Y-9444797D01*
G01X2151019Y-9474532D01*
G01X2171523Y-9502073D01*
G01X2195085Y-9527047D01*
G01X2221387Y-9549118D01*
G01X2250073Y-9567985D01*
G01X2280756Y-9583394D01*
G01X2313020Y-9595138D01*
G01X2346430Y-9603056D01*
G01X2380533Y-9607042D01*
G01X2414867Y-9607042D01*
G01X2448970Y-9603056D01*
G01X2482380Y-9595138D01*
G01X2514644Y-9583394D01*
G01X2545327Y-9567985D01*
G01X2574013Y-9549118D01*
G01X2600315Y-9527047D01*
G01X2623877Y-9502073D01*
G01X2644381Y-9474532D01*
G01X2661548Y-9444797D01*
G01X2675148Y-9413270D01*
G01X2684995Y-9380378D01*
G01X2690957Y-9346565D01*
G01X2692510Y-9319908D01*
G01X4119266Y-9319908D01*
G01X4121263Y-9354185D01*
G01X4127225Y-9387998D01*
G01X4137072Y-9420890D01*
G01X4150672Y-9452417D01*
G01X4167839Y-9482152D01*
G01X4188343Y-9509693D01*
G01X4211905Y-9534667D01*
G01X4238207Y-9556738D01*
G01X4266893Y-9575605D01*
G01X4297576Y-9591014D01*
G01X4329840Y-9602758D01*
G01X4363250Y-9610676D01*
G01X4397353Y-9614662D01*
G01X4431687Y-9614662D01*
G01X4465790Y-9610676D01*
G01X4499200Y-9602758D01*
G01X4531464Y-9591014D01*
G01X4562147Y-9575605D01*
G01X4590833Y-9556738D01*
G01X4617135Y-9534667D01*
G01X4640697Y-9509693D01*
G01X4661201Y-9482152D01*
G01X4678368Y-9452417D01*
G01X4691968Y-9420890D01*
G01X4701815Y-9387998D01*
G01X4707777Y-9354185D01*
G01X4709478Y-9324988D01*
G01X6130946Y-9324988D01*
G01X6132943Y-9359265D01*
G01X6138905Y-9393078D01*
G01X6148752Y-9425970D01*
G01X6162352Y-9457497D01*
G01X6179519Y-9487232D01*
G01X6200023Y-9514773D01*
G01X6223585Y-9539747D01*
G01X6249887Y-9561818D01*
G01X6278573Y-9580685D01*
G01X6309256Y-9596094D01*
G01X6341520Y-9607838D01*
G01X6374930Y-9615756D01*
G01X6409033Y-9619742D01*
G01X6443367Y-9619742D01*
G01X6477470Y-9615756D01*
G01X6510880Y-9607838D01*
G01X6543144Y-9596094D01*
G01X6573827Y-9580685D01*
G01X6602513Y-9561818D01*
G01X6628815Y-9539747D01*
G01X6652377Y-9514773D01*
G01X6672881Y-9487232D01*
G01X6690048Y-9457497D01*
G01X6703648Y-9425970D01*
G01X6713495Y-9393078D01*
G01X6719457Y-9359265D01*
G01X6721454Y-9324988D01*
G01X8142626Y-9324988D01*
G01X8144623Y-9359265D01*
G01X8150585Y-9393078D01*
G01X8160432Y-9425970D01*
G01X8174032Y-9457497D01*
G01X8191199Y-9487232D01*
G01X8211703Y-9514773D01*
G01X8235265Y-9539747D01*
G01X8261567Y-9561818D01*
G01X8290253Y-9580685D01*
G01X8320936Y-9596094D01*
G01X8353200Y-9607838D01*
G01X8386610Y-9615756D01*
G01X8420713Y-9619742D01*
G01X8455047Y-9619742D01*
G01X8489150Y-9615756D01*
G01X8522560Y-9607838D01*
G01X8554824Y-9596094D01*
G01X8585507Y-9580685D01*
G01X8614193Y-9561818D01*
G01X8640495Y-9539747D01*
G01X8664057Y-9514773D01*
G01X8684561Y-9487232D01*
G01X8701728Y-9457497D01*
G01X8715328Y-9425970D01*
G01X8725175Y-9393078D01*
G01X8731137Y-9359265D01*
G01X8733134Y-9324988D01*
G01X8731137Y-9290711D01*
G01X8725175Y-9256898D01*
G01X8715328Y-9224005D01*
G01X8701728Y-9192478D01*
G01X8684561Y-9162743D01*
G01X8664057Y-9135202D01*
G01X8640495Y-9110228D01*
G01X8614193Y-9088158D01*
G01X8585507Y-9069291D01*
G01X8554824Y-9053881D01*
G01X8522560Y-9042138D01*
G01X8489150Y-9034220D01*
G01X8455047Y-9030234D01*
G01X8420713Y-9030234D01*
G01X8386610Y-9034220D01*
G01X8353200Y-9042138D01*
G01X8320936Y-9053881D01*
G01X8290253Y-9069291D01*
G01X8261567Y-9088158D01*
G01X8235265Y-9110228D01*
G01X8211703Y-9135202D01*
G01X8191199Y-9162743D01*
G01X8174032Y-9192478D01*
G01X8160432Y-9224005D01*
G01X8150585Y-9256898D01*
G01X8144623Y-9290711D01*
G01X8142626Y-9324988D01*
G01X8142626Y-9324988D01*
G01X6721454Y-9324988D01*
G01X6719457Y-9290711D01*
G01X6713495Y-9256898D01*
G01X6703648Y-9224005D01*
G01X6690048Y-9192478D01*
G01X6672881Y-9162743D01*
G01X6652377Y-9135202D01*
G01X6628815Y-9110228D01*
G01X6602513Y-9088158D01*
G01X6573827Y-9069291D01*
G01X6543144Y-9053881D01*
G01X6510880Y-9042138D01*
G01X6477470Y-9034220D01*
G01X6443367Y-9030234D01*
G01X6409033Y-9030234D01*
G01X6374930Y-9034220D01*
G01X6341520Y-9042138D01*
G01X6309256Y-9053881D01*
G01X6278573Y-9069291D01*
G01X6249887Y-9088158D01*
G01X6223585Y-9110228D01*
G01X6200023Y-9135202D01*
G01X6179519Y-9162743D01*
G01X6162352Y-9192478D01*
G01X6148752Y-9224005D01*
G01X6138905Y-9256898D01*
G01X6132943Y-9290711D01*
G01X6130946Y-9324988D01*
G01X6130946Y-9324988D01*
G01X4709478Y-9324988D01*
G01X4709774Y-9319908D01*
G01X4707777Y-9285631D01*
G01X4701815Y-9251818D01*
G01X4691968Y-9218925D01*
G01X4678368Y-9187398D01*
G01X4661201Y-9157663D01*
G01X4640697Y-9130122D01*
G01X4617135Y-9105148D01*
G01X4590833Y-9083078D01*
G01X4562147Y-9064211D01*
G01X4531464Y-9048801D01*
G01X4499200Y-9037058D01*
G01X4465790Y-9029140D01*
G01X4431687Y-9025154D01*
G01X4397353Y-9025154D01*
G01X4363250Y-9029140D01*
G01X4329840Y-9037058D01*
G01X4297576Y-9048801D01*
G01X4266893Y-9064211D01*
G01X4238207Y-9083078D01*
G01X4211905Y-9105148D01*
G01X4188343Y-9130122D01*
G01X4167839Y-9157663D01*
G01X4150672Y-9187398D01*
G01X4137072Y-9218925D01*
G01X4127225Y-9251818D01*
G01X4121263Y-9285631D01*
G01X4119266Y-9319908D01*
G01X4119266Y-9319908D01*
G01X2692510Y-9319908D01*
G01X2692954Y-9312288D01*
G01X2690957Y-9278011D01*
G01X2684995Y-9244198D01*
G01X2675148Y-9211305D01*
G01X2661548Y-9179778D01*
G01X2644381Y-9150043D01*
G01X2623877Y-9122502D01*
G01X2600315Y-9097528D01*
G01X2574013Y-9075458D01*
G01X2545327Y-9056591D01*
G01X2514644Y-9041181D01*
G01X2482380Y-9029438D01*
G01X2448970Y-9021520D01*
G01X2414867Y-9017534D01*
G01X2380533Y-9017534D01*
G01X2346430Y-9021520D01*
G01X2313020Y-9029438D01*
G01X2280756Y-9041181D01*
G01X2250073Y-9056591D01*
G01X2221387Y-9075458D01*
G01X2195085Y-9097528D01*
G01X2171523Y-9122502D01*
G01X2151019Y-9150043D01*
G01X2133852Y-9179778D01*
G01X2120252Y-9211305D01*
G01X2110405Y-9244198D01*
G01X2104443Y-9278011D01*
G01X2102446Y-9312288D01*
G01X2102446Y-9312288D01*
G01X925360Y-9312288D01*
G01X925360Y-4512297D01*
G01X2102446Y-4512297D01*
G01X2104443Y-4546574D01*
G01X2110405Y-4580387D01*
G01X2120252Y-4613280D01*
G01X2133852Y-4644807D01*
G01X2151019Y-4674542D01*
G01X2171523Y-4702083D01*
G01X2195085Y-4727057D01*
G01X2221387Y-4749127D01*
G01X2250073Y-4767994D01*
G01X2280756Y-4783404D01*
G01X2313020Y-4795147D01*
G01X2346430Y-4803065D01*
G01X2380533Y-4807051D01*
G01X2414867Y-4807051D01*
G01X2448970Y-4803065D01*
G01X2482380Y-4795147D01*
G01X2514644Y-4783404D01*
G01X2545327Y-4767994D01*
G01X2574013Y-4749127D01*
G01X2600315Y-4727057D01*
G01X2623877Y-4702083D01*
G01X2644381Y-4674542D01*
G01X2661548Y-4644807D01*
G01X2675148Y-4613280D01*
G01X2684995Y-4580387D01*
G01X2690957Y-4546574D01*
G01X2692510Y-4519917D01*
G01X4119266Y-4519917D01*
G01X4121263Y-4554194D01*
G01X4127225Y-4588007D01*
G01X4137072Y-4620900D01*
G01X4150672Y-4652427D01*
G01X4167839Y-4682162D01*
G01X4188343Y-4709703D01*
G01X4211905Y-4734677D01*
G01X4238207Y-4756747D01*
G01X4266893Y-4775614D01*
G01X4297576Y-4791024D01*
G01X4329840Y-4802767D01*
G01X4363250Y-4810685D01*
G01X4397353Y-4814671D01*
G01X4431687Y-4814671D01*
G01X4465790Y-4810685D01*
G01X4499200Y-4802767D01*
G01X4531464Y-4791024D01*
G01X4562147Y-4775614D01*
G01X4590833Y-4756747D01*
G01X4617135Y-4734677D01*
G01X4640697Y-4709703D01*
G01X4661201Y-4682162D01*
G01X4678368Y-4652427D01*
G01X4691968Y-4620900D01*
G01X4701815Y-4588007D01*
G01X4707777Y-4554194D01*
G01X4709478Y-4524997D01*
G01X6130946Y-4524997D01*
G01X6132943Y-4559274D01*
G01X6138905Y-4593087D01*
G01X6148752Y-4625980D01*
G01X6162352Y-4657507D01*
G01X6179519Y-4687242D01*
G01X6200023Y-4714783D01*
G01X6223585Y-4739757D01*
G01X6249887Y-4761827D01*
G01X6278573Y-4780694D01*
G01X6309256Y-4796104D01*
G01X6341520Y-4807847D01*
G01X6374930Y-4815765D01*
G01X6409033Y-4819751D01*
G01X6443367Y-4819751D01*
G01X6477470Y-4815765D01*
G01X6510880Y-4807847D01*
G01X6543144Y-4796104D01*
G01X6573827Y-4780694D01*
G01X6602513Y-4761827D01*
G01X6628815Y-4739757D01*
G01X6652377Y-4714783D01*
G01X6672881Y-4687242D01*
G01X6690048Y-4657507D01*
G01X6703648Y-4625980D01*
G01X6713495Y-4593087D01*
G01X6719457Y-4559274D01*
G01X6721454Y-4524997D01*
G01X8142626Y-4524997D01*
G01X8144623Y-4559274D01*
G01X8150585Y-4593087D01*
G01X8160432Y-4625980D01*
G01X8174032Y-4657507D01*
G01X8191199Y-4687242D01*
G01X8211703Y-4714783D01*
G01X8235265Y-4739757D01*
G01X8261567Y-4761827D01*
G01X8290253Y-4780694D01*
G01X8320936Y-4796104D01*
G01X8353200Y-4807847D01*
G01X8386610Y-4815765D01*
G01X8420713Y-4819751D01*
G01X8455047Y-4819751D01*
G01X8489150Y-4815765D01*
G01X8522560Y-4807847D01*
G01X8554824Y-4796104D01*
G01X8585507Y-4780694D01*
G01X8614193Y-4761827D01*
G01X8640495Y-4739757D01*
G01X8664057Y-4714783D01*
G01X8684561Y-4687242D01*
G01X8701728Y-4657507D01*
G01X8715328Y-4625980D01*
G01X8725175Y-4593087D01*
G01X8731137Y-4559274D01*
G01X8733134Y-4524997D01*
G01X8731137Y-4490720D01*
G01X8725175Y-4456907D01*
G01X8715328Y-4424015D01*
G01X8701728Y-4392488D01*
G01X8684561Y-4362753D01*
G01X8664057Y-4335212D01*
G01X8640495Y-4310238D01*
G01X8614193Y-4288167D01*
G01X8585507Y-4269300D01*
G01X8554824Y-4253891D01*
G01X8522560Y-4242147D01*
G01X8489150Y-4234229D01*
G01X8455047Y-4230243D01*
G01X8420713Y-4230243D01*
G01X8386610Y-4234229D01*
G01X8353200Y-4242147D01*
G01X8320936Y-4253891D01*
G01X8290253Y-4269300D01*
G01X8261567Y-4288167D01*
G01X8235265Y-4310238D01*
G01X8211703Y-4335212D01*
G01X8191199Y-4362753D01*
G01X8174032Y-4392488D01*
G01X8160432Y-4424015D01*
G01X8150585Y-4456907D01*
G01X8144623Y-4490720D01*
G01X8142626Y-4524997D01*
G01X8142626Y-4524997D01*
G01X6721454Y-4524997D01*
G01X6721454Y-4524997D01*
G01X6719457Y-4490720D01*
G01X6713495Y-4456907D01*
G01X6703648Y-4424015D01*
G01X6690048Y-4392488D01*
G01X6672881Y-4362753D01*
G01X6652377Y-4335212D01*
G01X6628815Y-4310238D01*
G01X6602513Y-4288167D01*
G01X6573827Y-4269300D01*
G01X6543144Y-4253891D01*
G01X6510880Y-4242147D01*
G01X6477470Y-4234229D01*
G01X6443367Y-4230243D01*
G01X6409033Y-4230243D01*
G01X6374930Y-4234229D01*
G01X6341520Y-4242147D01*
G01X6309256Y-4253891D01*
G01X6278573Y-4269300D01*
G01X6249887Y-4288167D01*
G01X6223585Y-4310238D01*
G01X6200023Y-4335212D01*
G01X6179519Y-4362753D01*
G01X6162352Y-4392488D01*
G01X6148752Y-4424015D01*
G01X6138905Y-4456907D01*
G01X6132943Y-4490720D01*
G01X6130946Y-4524997D01*
G01X6130946Y-4524997D01*
G01X4709478Y-4524997D01*
G01X4709774Y-4519917D01*
G01X4707777Y-4485640D01*
G01X4701815Y-4451827D01*
G01X4691968Y-4418935D01*
G01X4678368Y-4387408D01*
G01X4661201Y-4357673D01*
G01X4640697Y-4330132D01*
G01X4617135Y-4305158D01*
G01X4590833Y-4283087D01*
G01X4562147Y-4264220D01*
G01X4531464Y-4248811D01*
G01X4499200Y-4237067D01*
G01X4465790Y-4229149D01*
G01X4431687Y-4225163D01*
G01X4397353Y-4225163D01*
G01X4363250Y-4229149D01*
G01X4329840Y-4237067D01*
G01X4297576Y-4248811D01*
G01X4266893Y-4264220D01*
G01X4238207Y-4283087D01*
G01X4211905Y-4305158D01*
G01X4188343Y-4330132D01*
G01X4167839Y-4357673D01*
G01X4150672Y-4387408D01*
G01X4137072Y-4418935D01*
G01X4127225Y-4451827D01*
G01X4121263Y-4485640D01*
G01X4119266Y-4519917D01*
G01X4119266Y-4519917D01*
G01X2692510Y-4519917D01*
G01X2692954Y-4512297D01*
G01X2690957Y-4478020D01*
G01X2684995Y-4444207D01*
G01X2675148Y-4411315D01*
G01X2661548Y-4379788D01*
G01X2644381Y-4350053D01*
G01X2623877Y-4322512D01*
G01X2600315Y-4297538D01*
G01X2574013Y-4275467D01*
G01X2545327Y-4256600D01*
G01X2514644Y-4241191D01*
G01X2482380Y-4229447D01*
G01X2448970Y-4221529D01*
G01X2414867Y-4217543D01*
G01X2380533Y-4217543D01*
G01X2346430Y-4221529D01*
G01X2313020Y-4229447D01*
G01X2280756Y-4241191D01*
G01X2250073Y-4256600D01*
G01X2221387Y-4275467D01*
G01X2195085Y-4297538D01*
G01X2171523Y-4322512D01*
G01X2151019Y-4350053D01*
G01X2133852Y-4379788D01*
G01X2120252Y-4411315D01*
G01X2110405Y-4444207D01*
G01X2104443Y-4478020D01*
G01X2102446Y-4512297D01*
G01X2102446Y-4512297D01*
G01X925360Y-4512297D01*
G01X925360Y-3418297D01*
G01X1889863Y-3418297D01*
G01X1892216Y-3440702D01*
G01X1898496Y-3462337D01*
G01X1908503Y-3482520D01*
G01X1921923Y-3500615D01*
G01X1938332Y-3516050D01*
G01X1957213Y-3528340D01*
G01X1977969Y-3537096D01*
G01X1999948Y-3542042D01*
G01X2022454Y-3543023D01*
G01X2044779Y-3540007D01*
G01X2066219Y-3533089D01*
G01X2086097Y-3522488D01*
G01X2103786Y-3508538D01*
G01X2118729Y-3491679D01*
G01X2131924Y-3512985D01*
G01X2148084Y-3532140D01*
G01X2166864Y-3548734D01*
G01X2187862Y-3562414D01*
G01X2210630Y-3572886D01*
G01X2234682Y-3579927D01*
G01X2259503Y-3583387D01*
G01X2284563Y-3583192D01*
G01X2309327Y-3579346D01*
G01X2333266Y-3571930D01*
G01X2355868Y-3561105D01*
G01X2376650Y-3547100D01*
G01X2395169Y-3530215D01*
G01X2411029Y-3510810D01*
G01X2423890Y-3489301D01*
G01X2438092Y-3504987D01*
G01X2454704Y-3518094D01*
G01X2473264Y-3528257D01*
G01X2493254Y-3535194D01*
G01X2514120Y-3538711D01*
G01X2535280Y-3538711D01*
G01X2556145Y-3535194D01*
G01X2576136Y-3528257D01*
G01X2594695Y-3518094D01*
G01X2611307Y-3504987D01*
G01X2625509Y-3489301D01*
G01X2637904Y-3510143D01*
G01X2653116Y-3529027D01*
G01X2670839Y-3545576D01*
G01X2690719Y-3559459D01*
G01X2712360Y-3570399D01*
G01X2735327Y-3578177D01*
G01X2759162Y-3582637D01*
G01X2783388Y-3583689D01*
G01X2807519Y-3581314D01*
G01X2831075Y-3575558D01*
G01X2853583Y-3566536D01*
G01X2874592Y-3554429D01*
G01X2893684Y-3539480D01*
G01X2910476Y-3521987D01*
G01X2924632Y-3502299D01*
G01X2935870Y-3480812D01*
G01X2943963Y-3457954D01*
G01X2948751Y-3434183D01*
G01X2950137Y-3409974D01*
G01X2948095Y-3385812D01*
G01X2942664Y-3362179D01*
G01X2933953Y-3339549D01*
G01X2933953Y-2457049D01*
G01X3875748Y-1515254D01*
G01X4488143Y-1515254D01*
G01X4509623Y-1538322D01*
G01X4533884Y-1558444D01*
G01X4560526Y-1575289D01*
G01X4589108Y-1588577D01*
G01X4619158Y-1598090D01*
G01X4650180Y-1603671D01*
G01X4681661Y-1605226D01*
G01X4713082Y-1602732D01*
G01X4743924Y-1596228D01*
G01X4773677Y-1585822D01*
G01X4801849Y-1571686D01*
G01X4827976Y-1554053D01*
G01X4851625Y-1533216D01*
G01X4872407Y-1509517D01*
G01X4889978Y-1483349D01*
G01X4904047Y-1455143D01*
G01X4914383Y-1425366D01*
G01X4920814Y-1394509D01*
G01X4923234Y-1363082D01*
G01X4921604Y-1331604D01*
G01X4915951Y-1300595D01*
G01X4906367Y-1270568D01*
G01X4893010Y-1242017D01*
G01X4876103Y-1215416D01*
G01X4855923Y-1191202D01*
G01X4832805Y-1169777D01*
G01X4807130Y-1151493D01*
G01X4779321Y-1136654D01*
G01X4815840Y-1136654D01*
G01X4833941Y-1134918D01*
G01X4851382Y-1129775D01*
G01X4867528Y-1121410D01*
G01X4881791Y-1110130D01*
G01X4893650Y-1096345D01*
G01X4902673Y-1080558D01*
G01X4908532Y-1063344D01*
G01X4911013Y-1045330D01*
G01X4916512Y-1063086D01*
G01X4925356Y-1079436D01*
G01X4937206Y-1093756D01*
G01X4951611Y-1105503D01*
G01X4968024Y-1114229D01*
G01X4985819Y-1119600D01*
G01X5004318Y-1121414D01*
G01X5129201Y-1121414D01*
G01X5100250Y-1130225D01*
G01X5072605Y-1142535D01*
G01X5046687Y-1158155D01*
G01X5022890Y-1176849D01*
G01X5001575Y-1198331D01*
G01X4983069Y-1222274D01*
G01X4967652Y-1248314D01*
G01X4955560Y-1276054D01*
G01X4946976Y-1305073D01*
G01X4942031Y-1334928D01*
G01X4940801Y-1365164D01*
G01X4943303Y-1395322D01*
G01X4949501Y-1424942D01*
G01X4959299Y-1453574D01*
G01X4972549Y-1480781D01*
G01X4989048Y-1506149D01*
G01X5008546Y-1529291D01*
G01X5030746Y-1549857D01*
G01X5030746Y-2965130D01*
G01X4737180Y-3258696D01*
G01X4713507Y-3269353D01*
G01X4691713Y-3283462D01*
G01X4672300Y-3300699D01*
G01X4655712Y-3320671D01*
G01X4642329Y-3342918D01*
G01X4628127Y-3327232D01*
G01X4611515Y-3314125D01*
G01X4592956Y-3303962D01*
G01X4572965Y-3297025D01*
G01X4552100Y-3293508D01*
G01X4530940Y-3293508D01*
G01X4510074Y-3297025D01*
G01X4490084Y-3303962D01*
G01X4471524Y-3314125D01*
G01X4454912Y-3327232D01*
G01X4440710Y-3342918D01*
G01X4427641Y-3321114D01*
G01X4411493Y-3301483D01*
G01X4392619Y-3284455D01*
G01X4371435Y-3270404D01*
G01X4348406Y-3259641D01*
G01X4324039Y-3252400D01*
G01X4298870Y-3248842D01*
G01X4273451Y-3249044D01*
G01X4248341Y-3253002D01*
G01X4224092Y-3260629D01*
G01X4201238Y-3271758D01*
G01X4180280Y-3286144D01*
G01X4161679Y-3303470D01*
G01X4145845Y-3323356D01*
G01X4133125Y-3345364D01*
G01X4117659Y-3328984D01*
G01X4099539Y-3315598D01*
G01X4079337Y-3305628D01*
G01X4057690Y-3299389D01*
G01X4035281Y-3297078D01*
G01X4012816Y-3298767D01*
G01X3991005Y-3304403D01*
G01X3970534Y-3313808D01*
G01X3952050Y-3326686D01*
G01X3936135Y-3342630D01*
G01X3923292Y-3361139D01*
G01X3913925Y-3381627D01*
G01X3908329Y-3403449D01*
G01X3906683Y-3425917D01*
G01X3909036Y-3448322D01*
G01X3915316Y-3469957D01*
G01X3925323Y-3490140D01*
G01X3938743Y-3508235D01*
G01X3955152Y-3523670D01*
G01X3974033Y-3535960D01*
G01X3994789Y-3544716D01*
G01X4016768Y-3549662D01*
G01X4039274Y-3550643D01*
G01X4061599Y-3547627D01*
G01X4083039Y-3540709D01*
G01X4102917Y-3530108D01*
G01X4120606Y-3516158D01*
G01X4135549Y-3499299D01*
G01X4148744Y-3520605D01*
G01X4164904Y-3539760D01*
G01X4183684Y-3556354D01*
G01X4204682Y-3570034D01*
G01X4227450Y-3580506D01*
G01X4251502Y-3587547D01*
G01X4276323Y-3591007D01*
G01X4301383Y-3590812D01*
G01X4326147Y-3586966D01*
G01X4350086Y-3579550D01*
G01X4372688Y-3568725D01*
G01X4393470Y-3554720D01*
G01X4411989Y-3537835D01*
G01X4427849Y-3518430D01*
G01X4440710Y-3496921D01*
G01X4454912Y-3512607D01*
G01X4471524Y-3525714D01*
G01X4490084Y-3535877D01*
G01X4510074Y-3542814D01*
G01X4530940Y-3546331D01*
G01X4552100Y-3546331D01*
G01X4572965Y-3542814D01*
G01X4592956Y-3535877D01*
G01X4611515Y-3525714D01*
G01X4628127Y-3512607D01*
G01X4642329Y-3496921D01*
G01X4655116Y-3518324D01*
G01X4670872Y-3537646D01*
G01X4689263Y-3554478D01*
G01X4709901Y-3568466D01*
G01X4732349Y-3579312D01*
G01X4756133Y-3586788D01*
G01X4780750Y-3590736D01*
G01X4805679Y-3591072D01*
G01X4830393Y-3587789D01*
G01X4854370Y-3580957D01*
G01X4877102Y-3570720D01*
G01X4898109Y-3557294D01*
G01X4916948Y-3540963D01*
G01X4933218Y-3522073D01*
G01X4946578Y-3501023D01*
G01X4956743Y-3478258D01*
G01X5295781Y-3139220D01*
G01X5311603Y-3120695D01*
G01X5324332Y-3099923D01*
G01X5333655Y-3077415D01*
G01X5339343Y-3053726D01*
G01X5341254Y-3029439D01*
G01X5341254Y-1549857D01*
G01X5363454Y-1529291D01*
G01X5382952Y-1506149D01*
G01X5399451Y-1480781D01*
G01X5412701Y-1453574D01*
G01X5422499Y-1424942D01*
G01X5428697Y-1395322D01*
G01X5431199Y-1365164D01*
G01X5429969Y-1334928D01*
G01X5425024Y-1305073D01*
G01X5416440Y-1276054D01*
G01X5404348Y-1248314D01*
G01X5388931Y-1222274D01*
G01X5370425Y-1198331D01*
G01X5349110Y-1176849D01*
G01X5325313Y-1158155D01*
G01X5299395Y-1142535D01*
G01X5271750Y-1130225D01*
G01X5242799Y-1121414D01*
G01X5354320Y-1121414D01*
G01X5370232Y-1120076D01*
G01X5385696Y-1116098D01*
G01X5400279Y-1109593D01*
G01X5413570Y-1100744D01*
G01X5425196Y-1089799D01*
G01X5434750Y-1103197D01*
G01X5446468Y-1114750D01*
G01X5459999Y-1124115D01*
G01X5474939Y-1131011D01*
G01X5490844Y-1135233D01*
G01X5507238Y-1136654D01*
G01X5592679Y-1136654D01*
G01X5565001Y-1151413D01*
G01X5539433Y-1169584D01*
G01X5516393Y-1190869D01*
G01X5496259Y-1214921D01*
G01X5479359Y-1241346D01*
G01X5465970Y-1269712D01*
G01X5456312Y-1299555D01*
G01X5450541Y-1330387D01*
G01X5448752Y-1361703D01*
G01X5450975Y-1392991D01*
G01X5457174Y-1423739D01*
G01X5467246Y-1453445D01*
G01X5481027Y-1481622D01*
G01X5498292Y-1507810D01*
G01X5518759Y-1531581D01*
G01X5542091Y-1552544D01*
G01X5567909Y-1570358D01*
G01X5595789Y-1584731D01*
G01X5625276Y-1595428D01*
G01X5655887Y-1602274D01*
G01X5687121Y-1605157D01*
G01X5718468Y-1604030D01*
G01X6651945Y-2537508D01*
G01X6651945Y-3345368D01*
G01X6637562Y-3330263D01*
G01X6620898Y-3317720D01*
G01X6602404Y-3308077D01*
G01X6582580Y-3301595D01*
G01X6561961Y-3298449D01*
G01X6541106Y-3298723D01*
G01X6520578Y-3302412D01*
G01X6500931Y-3309414D01*
G01X6482698Y-3319542D01*
G01X6466370Y-3332519D01*
G01X6452390Y-3347998D01*
G01X6439321Y-3326194D01*
G01X6423173Y-3306563D01*
G01X6404299Y-3289535D01*
G01X6383115Y-3275484D01*
G01X6360086Y-3264721D01*
G01X6335719Y-3257480D01*
G01X6310550Y-3253922D01*
G01X6285131Y-3254124D01*
G01X6260021Y-3258082D01*
G01X6235772Y-3265709D01*
G01X6212918Y-3276838D01*
G01X6191960Y-3291224D01*
G01X6173359Y-3308550D01*
G01X6157525Y-3328436D01*
G01X6144805Y-3350444D01*
G01X6129339Y-3334064D01*
G01X6111219Y-3320678D01*
G01X6091017Y-3310708D01*
G01X6069370Y-3304469D01*
G01X6046961Y-3302158D01*
G01X6024496Y-3303847D01*
G01X6002685Y-3309483D01*
G01X5982214Y-3318888D01*
G01X5963730Y-3331766D01*
G01X5947815Y-3347710D01*
G01X5934972Y-3366219D01*
G01X5925605Y-3386707D01*
G01X5920009Y-3408529D01*
G01X5918363Y-3430997D01*
G01X5920716Y-3453402D01*
G01X5926996Y-3475037D01*
G01X5937003Y-3495220D01*
G01X5950423Y-3513315D01*
G01X5966832Y-3528750D01*
G01X5985713Y-3541040D01*
G01X6006469Y-3549796D01*
G01X6028448Y-3554742D01*
G01X6050954Y-3555723D01*
G01X6073279Y-3552707D01*
G01X6094719Y-3545789D01*
G01X6114597Y-3535188D01*
G01X6132286Y-3521238D01*
G01X6147229Y-3504379D01*
G01X6160424Y-3525685D01*
G01X6176584Y-3544840D01*
G01X6195364Y-3561434D01*
G01X6216362Y-3575114D01*
G01X6239130Y-3585586D01*
G01X6263182Y-3592627D01*
G01X6288003Y-3596087D01*
G01X6313063Y-3595892D01*
G01X6337827Y-3592046D01*
G01X6361766Y-3584630D01*
G01X6384368Y-3573805D01*
G01X6405150Y-3559800D01*
G01X6423669Y-3542915D01*
G01X6439529Y-3523510D01*
G01X6452390Y-3502001D01*
G01X6466592Y-3517687D01*
G01X6483204Y-3530794D01*
G01X6501764Y-3540957D01*
G01X6521754Y-3547894D01*
G01X6542620Y-3551411D01*
G01X6563780Y-3551411D01*
G01X6584645Y-3547894D01*
G01X6604636Y-3540957D01*
G01X6623195Y-3530794D01*
G01X6639807Y-3517687D01*
G01X6654009Y-3502001D01*
G01X6666404Y-3522843D01*
G01X6681616Y-3541727D01*
G01X6699339Y-3558276D01*
G01X6719219Y-3572159D01*
G01X6740860Y-3583099D01*
G01X6763827Y-3590877D01*
G01X6787662Y-3595337D01*
G01X6811888Y-3596389D01*
G01X6836019Y-3594014D01*
G01X6859575Y-3588258D01*
G01X6882083Y-3579236D01*
G01X6903092Y-3567129D01*
G01X6922184Y-3552180D01*
G01X6938976Y-3534687D01*
G01X6953132Y-3514999D01*
G01X6964370Y-3493512D01*
G01X6972463Y-3470654D01*
G01X6977251Y-3446883D01*
G01X6978637Y-3422674D01*
G01X6976595Y-3398512D01*
G01X6971164Y-3374879D01*
G01X6962453Y-3352249D01*
G01X6962453Y-2473199D01*
G01X6960542Y-2448912D01*
G01X6954855Y-2425223D01*
G01X6945532Y-2402715D01*
G01X6932802Y-2381943D01*
G01X6916980Y-2363418D01*
G01X6154091Y-1600529D01*
G01X6180344Y-1604296D01*
G01X6206851Y-1605206D01*
G01X6233300Y-1603248D01*
G01X6259384Y-1598446D01*
G01X6284797Y-1590855D01*
G01X6309241Y-1580565D01*
G01X6332431Y-1567695D01*
G01X6354096Y-1552396D01*
G01X6373982Y-1534848D01*
G01X6391857Y-1515254D01*
G01X7706652Y-1515254D01*
G01X8595825Y-2404428D01*
G01X8595825Y-3301978D01*
G01X8575019Y-3298552D01*
G01X8553933Y-3298619D01*
G01X8533149Y-3302178D01*
G01X8513242Y-3309132D01*
G01X8494761Y-3319286D01*
G01X8478218Y-3332362D01*
G01X8464070Y-3347998D01*
G01X8451001Y-3326194D01*
G01X8434853Y-3306563D01*
G01X8415979Y-3289535D01*
G01X8394795Y-3275484D01*
G01X8371766Y-3264721D01*
G01X8347399Y-3257480D01*
G01X8322230Y-3253922D01*
G01X8296811Y-3254124D01*
G01X8271701Y-3258082D01*
G01X8247452Y-3265709D01*
G01X8224598Y-3276838D01*
G01X8203640Y-3291224D01*
G01X8185039Y-3308550D01*
G01X8169205Y-3328436D01*
G01X8156485Y-3350444D01*
G01X8141019Y-3334064D01*
G01X8122899Y-3320678D01*
G01X8102697Y-3310708D01*
G01X8081050Y-3304469D01*
G01X8058641Y-3302158D01*
G01X8036176Y-3303847D01*
G01X8014365Y-3309483D01*
G01X7993894Y-3318888D01*
G01X7975410Y-3331766D01*
G01X7959495Y-3347710D01*
G01X7946652Y-3366219D01*
G01X7937285Y-3386707D01*
G01X7931689Y-3408529D01*
G01X7930043Y-3430997D01*
G01X7932396Y-3453402D01*
G01X7938676Y-3475037D01*
G01X7948683Y-3495220D01*
G01X7962103Y-3513315D01*
G01X7978512Y-3528750D01*
G01X7997393Y-3541040D01*
G01X8018149Y-3549796D01*
G01X8040128Y-3554742D01*
G01X8062634Y-3555723D01*
G01X8084959Y-3552707D01*
G01X8106399Y-3545789D01*
G01X8126277Y-3535188D01*
G01X8143966Y-3521238D01*
G01X8158909Y-3504379D01*
G01X8172104Y-3525685D01*
G01X8188264Y-3544840D01*
G01X8207044Y-3561434D01*
G01X8228042Y-3575114D01*
G01X8250810Y-3585586D01*
G01X8274862Y-3592627D01*
G01X8299683Y-3596087D01*
G01X8324743Y-3595892D01*
G01X8349507Y-3592046D01*
G01X8373446Y-3584630D01*
G01X8396048Y-3573805D01*
G01X8416830Y-3559800D01*
G01X8435349Y-3542915D01*
G01X8451209Y-3523510D01*
G01X8464070Y-3502001D01*
G01X8478272Y-3517687D01*
G01X8494884Y-3530794D01*
G01X8513444Y-3540957D01*
G01X8533434Y-3547894D01*
G01X8554300Y-3551411D01*
G01X8575460Y-3551411D01*
G01X8596325Y-3547894D01*
G01X8616316Y-3540957D01*
G01X8634875Y-3530794D01*
G01X8651487Y-3517687D01*
G01X8665689Y-3502001D01*
G01X8678202Y-3523011D01*
G01X8693576Y-3542027D01*
G01X8711498Y-3558662D01*
G01X8731605Y-3572579D01*
G01X8753488Y-3583494D01*
G01X8776700Y-3591184D01*
G01X8800770Y-3595494D01*
G01X8825209Y-3596337D01*
G01X8849519Y-3593693D01*
G01X8873206Y-3587619D01*
G01X8895788Y-3578236D01*
G01X8916805Y-3565737D01*
G01X8935830Y-3550375D01*
G01X8952477Y-3532462D01*
G01X8966405Y-3512364D01*
G01X8977333Y-3490488D01*
G01X8985038Y-3467280D01*
G01X8989363Y-3443213D01*
G01X8990220Y-3418774D01*
G01X8987592Y-3394463D01*
G01X8981532Y-3370772D01*
G01X8972163Y-3348185D01*
G01X8959677Y-3327160D01*
G01X8944326Y-3308125D01*
G01X8926424Y-3291468D01*
G01X8906334Y-3277527D01*
G01X8906334Y-2340119D01*
G01X8904422Y-2315832D01*
G01X8898735Y-2292143D01*
G01X8889412Y-2269636D01*
G01X8876683Y-2248863D01*
G01X8860861Y-2230338D01*
G01X7880741Y-1250219D01*
G01X7862216Y-1234397D01*
G01X7841444Y-1221668D01*
G01X7818936Y-1212345D01*
G01X7795247Y-1206657D01*
G01X7770960Y-1204746D01*
G01X6391857Y-1204746D01*
G01X6370382Y-1181683D01*
G01X6346127Y-1161564D01*
G01X6319493Y-1144722D01*
G01X6290919Y-1131433D01*
G01X6260877Y-1121918D01*
G01X6229863Y-1116334D01*
G01X6370320Y-1116334D01*
G01X6388903Y-1114504D01*
G01X6406772Y-1109083D01*
G01X6423240Y-1100281D01*
G01X6437675Y-1088435D01*
G01X6449521Y-1074000D01*
G01X6458323Y-1057532D01*
G01X6463744Y-1039663D01*
G01X6465574Y-1021080D01*
G01X6465574Y-716280D01*
G01X6463744Y-697697D01*
G01X6458323Y-679828D01*
G01X6449521Y-663360D01*
G01X6437675Y-648925D01*
G01X6423240Y-637079D01*
G01X6406772Y-628277D01*
G01X6388903Y-622856D01*
G01X6370320Y-621026D01*
G01X6011428Y-621026D01*
G01X5994280Y-622582D01*
G01X5977691Y-627200D01*
G01X5962206Y-634729D01*
G01X5948329Y-644923D01*
G01X5936513Y-657449D01*
G01X5927146Y-671897D01*
G01X5912433Y-658965D01*
G01X5895385Y-649317D01*
G01X5876725Y-643360D01*
G01X5857240Y-641346D01*
G01X5507238Y-641346D01*
G01X5491327Y-642684D01*
G01X5475862Y-646662D01*
G01X5461279Y-653167D01*
G01X5447988Y-662016D01*
G01X5436362Y-672961D01*
G01X5426808Y-659563D01*
G01X5415090Y-648010D01*
G01X5401559Y-638645D01*
G01X5386619Y-631749D01*
G01X5370714Y-627527D01*
G01X5354320Y-626106D01*
G01X5354320Y-626106D01*
G01X5004318Y-626106D01*
G01X4986217Y-627842D01*
G01X4968776Y-632985D01*
G01X4952630Y-641350D01*
G01X4938367Y-652630D01*
G01X4926508Y-666415D01*
G01X4917485Y-682202D01*
G01X4911626Y-699416D01*
G01X4909145Y-717430D01*
G01X4903646Y-699674D01*
G01X4894802Y-683324D01*
G01X4882952Y-669004D01*
G01X4868547Y-657257D01*
G01X4852134Y-648531D01*
G01X4834339Y-643160D01*
G01X4815840Y-641346D01*
G01X4545848Y-641346D01*
G01X4527265Y-643176D01*
G01X4509396Y-648597D01*
G01X4492928Y-657399D01*
G01X4478493Y-669245D01*
G01X4466647Y-683680D01*
G01X4457845Y-700148D01*
G01X4452424Y-718017D01*
G01X4450594Y-736600D01*
G01X4450594Y-1041400D01*
G01X4452424Y-1059983D01*
G01X4457845Y-1077852D01*
G01X4466647Y-1094320D01*
G01X4478493Y-1108755D01*
G01X4492928Y-1120601D01*
G01X4509396Y-1129403D01*
G01X4527265Y-1134824D01*
G01X4545848Y-1136654D01*
G01X4576679Y-1136654D01*
G01X4551749Y-1149738D01*
G01X4528483Y-1165593D01*
G01X4507188Y-1184010D01*
G01X4488143Y-1204746D01*
G01X3811440Y-1204746D01*
G01X3787153Y-1206657D01*
G01X3763464Y-1212345D01*
G01X3740956Y-1221668D01*
G01X3720184Y-1234397D01*
G01X3701659Y-1250219D01*
G01X2668918Y-2282960D01*
G01X2653096Y-2301485D01*
G01X2640367Y-2322257D01*
G01X2631044Y-2344765D01*
G01X2625357Y-2368454D01*
G01X2623445Y-2392741D01*
G01X2623445Y-3332668D01*
G01X2609062Y-3317563D01*
G01X2592398Y-3305020D01*
G01X2573904Y-3295377D01*
G01X2554080Y-3288895D01*
G01X2533461Y-3285749D01*
G01X2512606Y-3286023D01*
G01X2492078Y-3289712D01*
G01X2472431Y-3296714D01*
G01X2454198Y-3306842D01*
G01X2437870Y-3319819D01*
G01X2423890Y-3335298D01*
G01X2410821Y-3313494D01*
G01X2394673Y-3293863D01*
G01X2375799Y-3276835D01*
G01X2354615Y-3262784D01*
G01X2331586Y-3252021D01*
G01X2307219Y-3244780D01*
G01X2282050Y-3241222D01*
G01X2256631Y-3241424D01*
G01X2231521Y-3245382D01*
G01X2207272Y-3253009D01*
G01X2184418Y-3264138D01*
G01X2163460Y-3278524D01*
G01X2144859Y-3295850D01*
G01X2129025Y-3315736D01*
G01X2116305Y-3337744D01*
G01X2100839Y-3321364D01*
G01X2082719Y-3307978D01*
G01X2062517Y-3298008D01*
G01X2040870Y-3291769D01*
G01X2018461Y-3289458D01*
G01X1995996Y-3291147D01*
G01X1974185Y-3296783D01*
G01X1953714Y-3306188D01*
G01X1935230Y-3319066D01*
G01X1919315Y-3335010D01*
G01X1906472Y-3353519D01*
G01X1897105Y-3374007D01*
G01X1891509Y-3395829D01*
G01X1889863Y-3418297D01*
G01X925360Y-3418297D01*
G01X925360Y-2265560D01*
G01X3005913Y-185000D01*
G01X7749645Y-185000D01*
G01X9815000Y-2250355D01*
G01X9815000Y-12389645D01*
G01X8149645Y-14055000D01*
G01X2970355Y-14055000D01*
G37*
G54D10*
G01X2970355Y-14055000D02*
G01X925360Y-12010005D01*
G01X925360Y-2265560D01*
G01X3005913Y-185000D01*
G01X7749645Y-185000D01*
G01X9815000Y-2250355D01*
G01X9815000Y-12389645D01*
G01X8149645Y-14055000D01*
G01X2970355Y-14055000D01*
G01X5354320Y-626106D02*
G01X5004318Y-626106D01*
G03X4909145Y-717430I0J-95254D01*
G03X4815840Y-641346I-93305J-19170D01*
G01X4545848Y-641346D01*
G03X4450594Y-736600I0J-95254D01*
G01X4450594Y-1041400D01*
G03X4545848Y-1136654I95254J0D01*
G01X4576679Y-1136654D01*
G03X4488143Y-1204746I101321J-223346D01*
G01X3811440Y-1204746D01*
G03X3701659Y-1250219I0J-155254D01*
G01X2668918Y-2282960D01*
G03X2623445Y-2392741I109781J-109781D01*
G01X2623445Y-3332668D01*
G03X2423890Y-3335298I-98745J-79632D01*
G03X2116305Y-3337744I-153190J-77002D01*
G03X1889863Y-3418297I-99604J-78555D01*
G03X2118729Y-3491679I126838J1997D01*
G03X2423890Y-3489301I151971J79380D01*
G03X2625509Y-3489301I100810J77002D01*
G03X2853583Y-3566536I153190J77002D01*
G03X2933953Y-3339549I-74883J154237D01*
G01X2933953Y-2457049D01*
G01X3875748Y-1515254D01*
G01X4488143Y-1515254D01*
G03X4872407Y-1509517I189857J155254D01*
G03X4779321Y-1136654I-194407J149517D01*
G01X4815840Y-1136654D01*
G03X4911013Y-1045330I0J95254D01*
G03X5004318Y-1121414I93305J19170D01*
G01X5129201Y-1121414D01*
G03X5030746Y-1549857I56799J-238586D01*
G01X5030746Y-2965130D01*
G01X4737180Y-3258696D01*
G03X4642329Y-3342918I58339J-161223D01*
G03X4440710Y-3342918I-100810J-77002D01*
G03X4133125Y-3345364I-153190J-77002D01*
G03X3906683Y-3425917I-99604J-78555D01*
G03X4135549Y-3499299I126838J1997D01*
G03X4440710Y-3496921I151971J79380D01*
G03X4642329Y-3496921I100810J77002D01*
G03X4805679Y-3591072I153190J77002D01*
G03X4956743Y-3478258I-10159J171153D01*
G01X5295781Y-3139220D01*
G03X5341254Y-3029439I-109781J109781D01*
G01X5341254Y-1549857D01*
G03X5242799Y-1121414I-155254J189857D01*
G01X5354320Y-1121414D01*
G03X5425196Y-1089799I0J95254D01*
G03X5507238Y-1136654I82042J48399D01*
G01X5592679Y-1136654D01*
G03X5457174Y-1423739I101321J-223346D01*
G03X5718468Y-1604030I236826J63739D01*
G01X6651945Y-2537508D01*
G01X6651945Y-3345368D01*
G03X6452390Y-3347998I-98745J-79632D01*
G03X6144805Y-3350444I-153190J-77002D01*
G03X5918363Y-3430997I-99604J-78555D01*
G03X6147229Y-3504379I126838J1997D01*
G03X6452390Y-3502001I151971J79380D01*
G03X6654009Y-3502001I100810J77002D01*
G03X6882083Y-3579236I153190J77002D01*
G03X6962453Y-3352249I-74883J154237D01*
G01X6962453Y-2473199D01*
G03X6916980Y-2363418I-155254J0D01*
G01X6154091Y-1600529D01*
G03X6284797Y-1590855I47909J240529D01*
G03X6391857Y-1515254I-82797J230855D01*
G01X7706652Y-1515254D01*
G01X8595825Y-2404428D01*
G01X8595825Y-3301978D01*
G03X8464070Y-3347998I-30946J-123021D01*
G03X8156485Y-3350444I-153190J-77002D01*
G03X7930043Y-3430997I-99604J-78555D01*
G03X8158909Y-3504379I126838J1997D01*
G03X8464070Y-3502001I151971J79380D01*
G03X8665689Y-3502001I100810J77002D01*
G03X8935830Y-3550375I153190J77002D01*
G03X8906334Y-3277527I-116951J125375D01*
G01X8906334Y-2340119D01*
G03X8860861Y-2230338I-155254J0D01*
G01X7880741Y-1250219D01*
G03X7770960Y-1204746I-109781J-109781D01*
G01X6391857Y-1204746D01*
G03X6229863Y-1116334I-189857J-155254D01*
G01X6370320Y-1116334D01*
G03X6465574Y-1021080I0J95254D01*
G01X6465574Y-716280D01*
G03X6370320Y-621026I-95254J0D01*
G01X6011428Y-621026D01*
G03X5927146Y-671897I0J-95254D01*
G03X5857240Y-641346I-69906J-64703D01*
G01X5507238Y-641346D01*
G03X5436362Y-672961I0J-95254D01*
G03X5354320Y-626106I-82042J-48399D01*
G01X4518346Y-11605715D02*
G03X4673600Y-11957754I155254J-141785D01*
G03X4828854Y-11605715I0J210254D01*
G01X4828854Y-10575160D01*
G01X6093471Y-10575160D01*
G03X6248951Y-10580240I82730J150174D01*
G01X6603449Y-10580240D01*
G03X6748950Y-10580240I72750J155254D01*
G01X8115130Y-10580240D01*
G03X8260631Y-10580240I72750J155254D01*
G01X8615129Y-10580240D01*
G03X8859333Y-10424985I72750J155254D01*
G03X8615129Y-10269731I-171454J0D01*
G01X8260631Y-10269731D01*
G03X8115130Y-10269731I-72750J-155254D01*
G01X6748950Y-10269731D01*
G03X6603449Y-10269731I-72750J-155254D01*
G01X6248951Y-10269731D01*
G03X6115460Y-10264651I-72750J-155254D01*
G01X4737270Y-10264651D01*
G03X4591769Y-10264651I-72750J-155254D01*
G01X4237271Y-10264651D01*
G03X4110962Y-10257031I-72750J-155254D01*
G01X2720450Y-10257031D01*
G03X2574949Y-10257031I-72750J-155254D01*
G01X2220451Y-10257031D01*
G03X1976247Y-10412285I-72750J-155254D01*
G03X2220451Y-10567540I171454J0D01*
G01X2574949Y-10567540D01*
G03X2720450Y-10567540I72750J155254D01*
G01X4077339Y-10567540D01*
G03X4237271Y-10575160I87182J147634D01*
G01X4518346Y-10575160D01*
G01X4518346Y-11605715D01*
G01X2102446Y-9312288D02*
G03X2692954Y-9312288I295254J0D01*
G03X2102446Y-9312288I-295254J0D01*
G01X2102446Y-4512297D02*
G03X2692954Y-4512297I295254J0D01*
G03X2102446Y-4512297I-295254J0D01*
G01X4119266Y-9319908D02*
G03X4709774Y-9319908I295254J0D01*
G03X4119266Y-9319908I-295254J0D01*
G01X4119266Y-4519917D02*
G03X4709774Y-4519917I295254J0D01*
G03X4119266Y-4519917I-295254J0D01*
G01X4247292Y-13200000D02*
G03X4342546Y-13295254I95254J0D01*
G01X4880000Y-13295254D01*
G03X4975254Y-13200000I0J95254D01*
G01X4975254Y-12895200D01*
G03X4880000Y-12799946I-95254J0D01*
G01X4342546Y-12799946D01*
G03X4247292Y-12895200I0J-95254D01*
G01X4247292Y-13200000D01*
G01X4466596Y-13888720D02*
G03X4561850Y-13983974I95254J0D01*
G01X6172200Y-13983974D01*
G03X6267454Y-13888720I0J95254D01*
G01X6267454Y-13583920D01*
G03X6172200Y-13488666I-95254J0D01*
G01X4561850Y-13488666D01*
G03X4466596Y-13583920I0J-95254D01*
G01X4466596Y-13888720D01*
G01X5225346Y-11747500D02*
G03X5645854Y-11747500I210254J0D01*
G03X5225346Y-11747500I-210254J0D01*
G01X5856182Y-13200000D02*
G03X5951436Y-13295254I95254J0D01*
G01X6480000Y-13295254D01*
G03X6575254Y-13200000I0J95254D01*
G01X6575254Y-12895200D01*
G03X6480000Y-12799946I-95254J0D01*
G01X5951436Y-12799946D01*
G03X5856182Y-12895200I0J-95254D01*
G01X5856182Y-13200000D01*
G01X6031946Y-11747500D02*
G03X6363254Y-11747500I165654J0D01*
G03X6031946Y-11747500I-165654J0D01*
G01X6130946Y-9324988D02*
G03X6721454Y-9324988I295254J0D01*
G03X6130946Y-9324988I-295254J0D01*
G01X6130946Y-4524997D02*
G03X6721454Y-4524997I295254J0D01*
G03X6130946Y-4524997I-295254J0D01*
G01X8142626Y-9324988D02*
G03X8733134Y-9324988I295254J0D01*
G03X8142626Y-9324988I-295254J0D01*
G01X8142626Y-4524997D02*
G03X8733134Y-4524997I295254J0D01*
G03X8142626Y-4524997I-295254J0D01*
G54D11*
G01X1940755Y-3416299D02*
G01X1914847Y-3416299D01*
G01X2016701Y-3340354D02*
G01X2016701Y-3314446D01*
G01X2016701Y-3492245D02*
G01X2016701Y-3518153D01*
G01X2524700Y-3336354D02*
G01X2524700Y-3310446D01*
G01X2524700Y-3488245D02*
G01X2524700Y-3514153D01*
G01X3957575Y-3423919D02*
G01X3931667Y-3423919D01*
G01X4033521Y-3347974D02*
G01X4033521Y-3322066D01*
G01X4033521Y-3499865D02*
G01X4033521Y-3525773D01*
G01X4541520Y-3343974D02*
G01X4541520Y-3318066D01*
G01X4541520Y-3495865D02*
G01X4541520Y-3521773D01*
G01X5969255Y-3428999D02*
G01X5943347Y-3428999D01*
G01X6045201Y-3353054D02*
G01X6045201Y-3327146D01*
G01X6045201Y-3504945D02*
G01X6045201Y-3530853D01*
G01X6082854Y-11747500D02*
G01X6056946Y-11747500D01*
G01X6312346Y-11747500D02*
G01X6338254Y-11747500D01*
G01X6197600Y-11632754D02*
G01X6197600Y-11606846D01*
G01X6197600Y-11862246D02*
G01X6197600Y-11888154D01*
G01X6553200Y-3349054D02*
G01X6553200Y-3323146D01*
G01X6553200Y-3500945D02*
G01X6553200Y-3526853D01*
G01X7980935Y-3428999D02*
G01X7955027Y-3428999D01*
G01X8056881Y-3353054D02*
G01X8056881Y-3327146D01*
G01X8056881Y-3504945D02*
G01X8056881Y-3530853D01*
G01X8564880Y-3349054D02*
G01X8564880Y-3323146D01*
G01X8564880Y-3500945D02*
G01X8564880Y-3526853D01*
G04 Copper End*

G04 Text Start*
G54D12*
G01X4805680Y-782320D02*
G01X4734560Y-969010D01*
G01X4663440Y-782320D02*
G01X4734560Y-969010D01*
G01X4600448Y-817880D02*
G01X4582668Y-808990D01*
G01X4555998Y-782320D01*
G01X4555998Y-969010D01*
G01X5344160Y-767080D02*
G01X5273040Y-953770D01*
G01X5201920Y-767080D02*
G01X5273040Y-953770D01*
G01X5130038Y-811530D02*
G01X5130038Y-802640D01*
G01X5121148Y-784860D01*
G01X5112258Y-775970D01*
G01X5094478Y-767080D01*
G01X5058918Y-767080D01*
G01X5041138Y-775970D01*
G01X5032248Y-784860D01*
G01X5023358Y-802640D01*
G01X5023358Y-820420D01*
G01X5032248Y-838200D01*
G01X5050028Y-864870D01*
G01X5138928Y-953770D01*
G01X5014468Y-953770D01*
G01X5847080Y-782320D02*
G01X5775960Y-969010D01*
G01X5704840Y-782320D02*
G01X5775960Y-969010D01*
G01X5624068Y-782320D02*
G01X5526278Y-782320D01*
G01X5579618Y-853440D01*
G01X5552948Y-853440D01*
G01X5535168Y-862330D01*
G01X5526278Y-871220D01*
G01X5517388Y-897890D01*
G01X5517388Y-915670D01*
G01X5526278Y-942340D01*
G01X5544058Y-960120D01*
G01X5570728Y-969010D01*
G01X5597398Y-969010D01*
G01X5624068Y-960120D01*
G01X5632958Y-951230D01*
G01X5641848Y-933450D01*
G01X4869840Y-12940920D02*
G01X4869840Y-13127610D01*
G01X4869840Y-12940920D02*
G01X4789830Y-12940920D01*
G01X4763160Y-12949810D01*
G01X4754270Y-12958700D01*
G01X4745380Y-12976480D01*
G01X4745380Y-13003150D01*
G01X4754270Y-13020930D01*
G01X4763160Y-13029820D01*
G01X4789830Y-13038710D01*
G01X4869840Y-13038710D01*
G01X4629048Y-12940920D02*
G01X4646828Y-12949810D01*
G01X4664608Y-12967590D01*
G01X4673498Y-12985370D01*
G01X4682388Y-13012040D01*
G01X4682388Y-13056490D01*
G01X4673498Y-13083160D01*
G01X4664608Y-13100940D01*
G01X4646828Y-13118720D01*
G01X4629048Y-13127610D01*
G01X4593488Y-13127610D01*
G01X4575708Y-13118720D01*
G01X4557928Y-13100940D01*
G01X4549038Y-13083160D01*
G01X4540148Y-13056490D01*
G01X4540148Y-13012040D01*
G01X4549038Y-12985370D01*
G01X4557928Y-12967590D01*
G01X4575708Y-12949810D01*
G01X4593488Y-12940920D01*
G01X4629048Y-12940920D01*
G01X4352696Y-12967590D02*
G01X4370476Y-12949810D01*
G01X4397146Y-12940920D01*
G01X4432706Y-12940920D01*
G01X4459376Y-12949810D01*
G01X4477156Y-12967590D01*
G01X4477156Y-12985370D01*
G01X4468266Y-13003150D01*
G01X4459376Y-13012040D01*
G01X4441596Y-13020930D01*
G01X4388256Y-13038710D01*
G01X4370476Y-13047600D01*
G01X4361586Y-13056490D01*
G01X4352696Y-13074270D01*
G01X4352696Y-13100940D01*
G01X4370476Y-13118720D01*
G01X4397146Y-13127610D01*
G01X4432706Y-13127610D01*
G01X4459376Y-13118720D01*
G01X4477156Y-13100940D01*
G01X6336490Y-12985370D02*
G01X6345380Y-12967590D01*
G01X6363160Y-12949810D01*
G01X6380940Y-12940920D01*
G01X6416500Y-12940920D01*
G01X6434280Y-12949810D01*
G01X6452060Y-12967590D01*
G01X6460950Y-12985370D01*
G01X6469840Y-13012040D01*
G01X6469840Y-13056490D01*
G01X6460950Y-13083160D01*
G01X6452060Y-13100940D01*
G01X6434280Y-13118720D01*
G01X6416500Y-13127610D01*
G01X6380940Y-13127610D01*
G01X6363160Y-13118720D01*
G01X6345380Y-13100940D01*
G01X6336490Y-13083160D01*
G01X6336490Y-13056490D01*
G01X6380940Y-13056490D02*
G01X6336490Y-13056490D01*
G01X6273498Y-12940920D02*
G01X6273498Y-13127610D01*
G01X6273498Y-12940920D02*
G01X6149038Y-13127610D01*
G01X6149038Y-12940920D02*
G01X6149038Y-13127610D01*
G01X6086046Y-12940920D02*
G01X6086046Y-13127610D01*
G01X6086046Y-12940920D02*
G01X6023816Y-12940920D01*
G01X5997146Y-12949810D01*
G01X5979366Y-12967590D01*
G01X5970476Y-12985370D01*
G01X5961586Y-13012040D01*
G01X5961586Y-13056490D01*
G01X5970476Y-13083160D01*
G01X5979366Y-13100940D01*
G01X5997146Y-13118720D01*
G01X6023816Y-13127610D01*
G01X6086046Y-13127610D01*
G01X6360160Y-762000D02*
G01X6289040Y-948690D01*
G01X6217920Y-762000D02*
G01X6289040Y-948690D01*
G01X6066028Y-762000D02*
G01X6154928Y-886460D01*
G01X6021578Y-886460D01*
G01X6066028Y-762000D02*
G01X6066028Y-948690D01*
G01X6162040Y-13629640D02*
G01X6162040Y-13816330D01*
G01X6162040Y-13629640D02*
G01X6099810Y-13629640D01*
G01X6073140Y-13638530D01*
G01X6055360Y-13656310D01*
G01X6046470Y-13674090D01*
G01X6037580Y-13700760D01*
G01X6037580Y-13745210D01*
G01X6046470Y-13771880D01*
G01X6055360Y-13789660D01*
G01X6073140Y-13807440D01*
G01X6099810Y-13816330D01*
G01X6162040Y-13816330D01*
G01X5974588Y-13629640D02*
G01X5965698Y-13638530D01*
G01X5956808Y-13629640D01*
G01X5965698Y-13620750D01*
G01X5974588Y-13629640D01*
G01X5965698Y-13691870D02*
G01X5965698Y-13816330D01*
G01X5796026Y-13718540D02*
G01X5804916Y-13700760D01*
G01X5831586Y-13691870D01*
G01X5858256Y-13691870D01*
G01X5884926Y-13700760D01*
G01X5893816Y-13718540D01*
G01X5884926Y-13736320D01*
G01X5867146Y-13745210D01*
G01X5822696Y-13754100D01*
G01X5804916Y-13762990D01*
G01X5796026Y-13780770D01*
G01X5796026Y-13789660D01*
G01X5804916Y-13807440D01*
G01X5831586Y-13816330D01*
G01X5858256Y-13816330D01*
G01X5884926Y-13807440D01*
G01X5893816Y-13789660D01*
G01X5706364Y-13629640D02*
G01X5706364Y-13780770D01*
G01X5697474Y-13807440D01*
G01X5679694Y-13816330D01*
G01X5661914Y-13816330D01*
G01X5733034Y-13691870D02*
G01X5670804Y-13691870D01*
G01X5598922Y-13691870D02*
G01X5598922Y-13816330D01*
G01X5598922Y-13745210D02*
G01X5590032Y-13718540D01*
G01X5572252Y-13700760D01*
G01X5554472Y-13691870D01*
G01X5527802Y-13691870D01*
G01X5464810Y-13629640D02*
G01X5455920Y-13638530D01*
G01X5447030Y-13629640D01*
G01X5455920Y-13620750D01*
G01X5464810Y-13629640D01*
G01X5455920Y-13691870D02*
G01X5455920Y-13816330D01*
G01X5357368Y-13629640D02*
G01X5357368Y-13780770D01*
G01X5348478Y-13807440D01*
G01X5330698Y-13816330D01*
G01X5312918Y-13816330D01*
G01X5384038Y-13691870D02*
G01X5321808Y-13691870D01*
G01X5116576Y-13674090D02*
G01X5125466Y-13656310D01*
G01X5143246Y-13638530D01*
G01X5161026Y-13629640D01*
G01X5196586Y-13629640D01*
G01X5214366Y-13638530D01*
G01X5232146Y-13656310D01*
G01X5241036Y-13674090D01*
G01X5249926Y-13700760D01*
G01X5249926Y-13745210D01*
G01X5241036Y-13771880D01*
G01X5232146Y-13789660D01*
G01X5214366Y-13807440D01*
G01X5196586Y-13816330D01*
G01X5161026Y-13816330D01*
G01X5143246Y-13807440D01*
G01X5125466Y-13789660D01*
G01X5116576Y-13771880D01*
G01X4991354Y-13629640D02*
G01X4991354Y-13816330D01*
G01X5053584Y-13629640D02*
G01X4929124Y-13629640D01*
G01X4866132Y-13629640D02*
G01X4866132Y-13816330D01*
G01X4866132Y-13629640D02*
G01X4786122Y-13629640D01*
G01X4759452Y-13638530D01*
G01X4750562Y-13647420D01*
G01X4741672Y-13665200D01*
G01X4741672Y-13682980D01*
G01X4750562Y-13700760D01*
G01X4759452Y-13709650D01*
G01X4786122Y-13718540D01*
G01X4866132Y-13718540D01*
G01X4803902Y-13718540D02*
G01X4741672Y-13816330D01*
G01X4678680Y-13629640D02*
G01X4678680Y-13816330D01*
G01X4678680Y-13816330D02*
G01X4572000Y-13816330D01*
G04 Text End*

G04 Pad Start*
G54D13*
G01X2016701Y-3416299D03*
G01X2270700Y-3412299D03*
G01X2147701Y-10412285D03*
G01X2524700Y-3412299D03*
G01X2778699Y-3412299D03*
G01X2647700Y-10412285D03*
G54D14*
G01X2397700Y-4512297D03*
G01X2397700Y-9312288D03*
G54D15*
G01X6197600Y-11747500D03*
G01X5435600Y-11747500D03*
G01X4673600Y-11747500D03*
G54D13*
G01X4033521Y-3423919D03*
G01X4287520Y-3419919D03*
G01X4164521Y-10419905D03*
G01X4541520Y-3419919D03*
G01X4795519Y-3419919D03*
G01X4664520Y-10419905D03*
G54D14*
G01X4414520Y-4519917D03*
G01X4414520Y-9319908D03*
G54D13*
G01X6045201Y-3428999D03*
G01X6299200Y-3424999D03*
G01X6176201Y-10424985D03*
G01X6553200Y-3424999D03*
G01X6807199Y-3424999D03*
G01X6676200Y-10424985D03*
G54D14*
G01X6426200Y-4524997D03*
G01X6426200Y-9324988D03*
G54D13*
G01X8056881Y-3428999D03*
G01X8310880Y-3424999D03*
G01X8187881Y-10424985D03*
G01X8564880Y-3424999D03*
G01X8818879Y-3424999D03*
G01X8687880Y-10424985D03*
G54D14*
G01X8437880Y-4524997D03*
G01X8437880Y-9324988D03*
G54D16*
G01X6202000Y-1360000D03*
G01X5694000Y-1360000D03*
G01X5186000Y-1360000D03*
G01X4678000Y-1360000D03*
G04 Pad End*

G04 Track Start*
G54D18*
G01X2147701Y-10412285D02*
G01X2647700Y-10412285D01*
G01X4156901Y-10412285D01*
G01X4164521Y-10419905D01*
G01X4664520Y-10419905D01*
G01X6171121Y-10419905D01*
G01X6176201Y-10424985D01*
G01X6676200Y-10424985D01*
G01X8187881Y-10424985D01*
G01X8187881Y-10424985D02*
G01X8687880Y-10424985D01*
G01X4673600Y-11747500D02*
G01X4673600Y-10428986D01*
G01X4664520Y-10419905D01*
G01X4795519Y-3419919D02*
G01X5186000Y-3029439D01*
G01X5186000Y-1360000D01*
G01X6807199Y-3424999D02*
G01X6807199Y-2473199D01*
G01X5694000Y-1360000D01*
G01X8818879Y-3424999D02*
G01X8751079Y-3357200D01*
G01X2778699Y-3412299D02*
G01X2778699Y-2392741D01*
G01X3811440Y-1360000D01*
G01X4678000Y-1360000D01*
G01X8751079Y-3357200D02*
G01X8751079Y-2340119D01*
G01X7770960Y-1360000D01*
G01X6202000Y-1360000D01*
G04 Track End*

M02*

