G04 Layer: TopSilkscreenLayer*
G04 EasyEDA Pro v2.2.45.4, 2025-12-09 12:56:18*
G04 Gerber Generator version 0.3*
G04 Scale: 100 percent, Rotated: No, Reflected: No*
G04 Dimensions in millimeters*
G04 Leading zeros omitted, absolute positions, 4 integers and 5 decimals*
G04 Generated by one-click*
%FSLAX45Y45*%
%MOMM*%
%ADD10C,0.1524*%
%ADD11C,0.12*%
%ADD12C,0.254*%
%ADD13C,0.2366*%
G75*


G04 Text Start*
G54D10*
G01X1899321Y-3049366D02*
G01X1899321Y-3095848D01*
G01X1902369Y-3104992D01*
G01X1908719Y-3111342D01*
G01X1917863Y-3114390D01*
G01X1924213Y-3114390D01*
G01X1933357Y-3111342D01*
G01X1939453Y-3104992D01*
G01X1942755Y-3095848D01*
G01X1942755Y-3049366D01*
G01X1972981Y-3061812D02*
G01X1979077Y-3058510D01*
G01X1988221Y-3049366D01*
G01X1988221Y-3114390D01*
G01X4280522Y-11417866D02*
G01X4280522Y-11482890D01*
G01X4280522Y-11417866D02*
G01X4308462Y-11417866D01*
G01X4317606Y-11420914D01*
G01X4320654Y-11423962D01*
G01X4323956Y-11430312D01*
G01X4323956Y-11439456D01*
G01X4320654Y-11445552D01*
G01X4317606Y-11448854D01*
G01X4308462Y-11451902D01*
G01X4280522Y-11451902D01*
G01X4360278Y-11417866D02*
G01X4394314Y-11417866D01*
G01X4375772Y-11442504D01*
G01X4384916Y-11442504D01*
G01X4391266Y-11445552D01*
G01X4394314Y-11448854D01*
G01X4397362Y-11457998D01*
G01X4397362Y-11464348D01*
G01X4394314Y-11473492D01*
G01X4388218Y-11479842D01*
G01X4378820Y-11482890D01*
G01X4369422Y-11482890D01*
G01X4360278Y-11479842D01*
G01X4357230Y-11476540D01*
G01X4354182Y-11470444D01*
G01X3916141Y-3056986D02*
G01X3916141Y-3103468D01*
G01X3919189Y-3112612D01*
G01X3925539Y-3118962D01*
G01X3934683Y-3122010D01*
G01X3941033Y-3122010D01*
G01X3950177Y-3118962D01*
G01X3956273Y-3112612D01*
G01X3959575Y-3103468D01*
G01X3959575Y-3056986D01*
G01X3992849Y-3072480D02*
G01X3992849Y-3069432D01*
G01X3995897Y-3063082D01*
G01X3998945Y-3060034D01*
G01X4005041Y-3056986D01*
G01X4017487Y-3056986D01*
G01X4023837Y-3060034D01*
G01X4026885Y-3063082D01*
G01X4029933Y-3069432D01*
G01X4029933Y-3075528D01*
G01X4026885Y-3081624D01*
G01X4020535Y-3091022D01*
G01X3989801Y-3122010D01*
G01X4032981Y-3122010D01*
G01X5927821Y-3062066D02*
G01X5927821Y-3108548D01*
G01X5930869Y-3117692D01*
G01X5937219Y-3124042D01*
G01X5946363Y-3127090D01*
G01X5952713Y-3127090D01*
G01X5961857Y-3124042D01*
G01X5967953Y-3117692D01*
G01X5971255Y-3108548D01*
G01X5971255Y-3062066D01*
G01X6007577Y-3062066D02*
G01X6041613Y-3062066D01*
G01X6023071Y-3086704D01*
G01X6032215Y-3086704D01*
G01X6038565Y-3089752D01*
G01X6041613Y-3093054D01*
G01X6044661Y-3102198D01*
G01X6044661Y-3108548D01*
G01X6041613Y-3117692D01*
G01X6035517Y-3124042D01*
G01X6026119Y-3127090D01*
G01X6016721Y-3127090D01*
G01X6007577Y-3124042D01*
G01X6004529Y-3120740D01*
G01X6001481Y-3114644D01*
G01X7939501Y-3062066D02*
G01X7939501Y-3108548D01*
G01X7942549Y-3117692D01*
G01X7948899Y-3124042D01*
G01X7958043Y-3127090D01*
G01X7964393Y-3127090D01*
G01X7973537Y-3124042D01*
G01X7979633Y-3117692D01*
G01X7982935Y-3108548D01*
G01X7982935Y-3062066D01*
G01X8050245Y-3062066D02*
G01X8019257Y-3062066D01*
G01X8016209Y-3089752D01*
G01X8019257Y-3086704D01*
G01X8028401Y-3083656D01*
G01X8037799Y-3083656D01*
G01X8047197Y-3086704D01*
G01X8053293Y-3093054D01*
G01X8056341Y-3102198D01*
G01X8056341Y-3108548D01*
G01X8053293Y-3117692D01*
G01X8047197Y-3124042D01*
G01X8037799Y-3127090D01*
G01X8028401Y-3127090D01*
G01X8019257Y-3124042D01*
G01X8016209Y-3120740D01*
G01X8013161Y-3114644D01*
G01X5131403Y-1050862D02*
G01X5128355Y-1044512D01*
G01X5122005Y-1038416D01*
G01X5115909Y-1035368D01*
G01X5103463Y-1035368D01*
G01X5097367Y-1038416D01*
G01X5091017Y-1044512D01*
G01X5087969Y-1050862D01*
G01X5084921Y-1060006D01*
G01X5084921Y-1075500D01*
G01X5087969Y-1084898D01*
G01X5091017Y-1090994D01*
G01X5097367Y-1097344D01*
G01X5103463Y-1100392D01*
G01X5115909Y-1100392D01*
G01X5122005Y-1097344D01*
G01X5128355Y-1090994D01*
G01X5131403Y-1084898D01*
G01X5161629Y-1035368D02*
G01X5161629Y-1100392D01*
G01X5161629Y-1035368D02*
G01X5204809Y-1100392D01*
G01X5204809Y-1035368D02*
G01X5204809Y-1100392D01*
G01X5235035Y-1047814D02*
G01X5241131Y-1044512D01*
G01X5250275Y-1035368D01*
G01X5250275Y-1100392D01*
G04 Text End*

G04 PolygonModel Start*
G54D11*
G01X1947701Y-3162300D02*
G01X2847699Y-3162300D01*
G01X2897699Y-3162300D02*
G01X2897699Y-10662285D01*
G01X2847699Y-10662285D02*
G01X1947701Y-10662285D01*
G01X1897701Y-10662285D02*
G01X1897701Y-3162300D01*
G01X2847699Y-3162300D02*
G01X2897699Y-3162300D01*
G01X1897701Y-3162300D02*
G01X1947701Y-3162300D01*
G01X2847699Y-10662285D02*
G01X2897699Y-10662285D01*
G01X1897701Y-10662285D02*
G01X1947701Y-10662285D01*
G54D12*
G01X5054615Y-11555009D02*
G01X5054615Y-12750002D01*
G01X5816600Y-11554998D02*
G01X5816600Y-12749995D01*
G01X6585598Y-11537500D02*
G01X6585598Y-12747498D01*
G01X6585598Y-12747498D02*
G01X4285602Y-12747498D01*
G01X4285602Y-12747498D02*
G01X4285602Y-11537500D01*
G01X4285602Y-11537500D02*
G01X6585598Y-11537500D01*
G54D11*
G01X3964521Y-3169920D02*
G01X4864519Y-3169920D01*
G01X4914519Y-3169920D02*
G01X4914519Y-10669905D01*
G01X4864519Y-10669905D02*
G01X3964521Y-10669905D01*
G01X3914521Y-10669905D02*
G01X3914521Y-3169920D01*
G01X4864519Y-3169920D02*
G01X4914519Y-3169920D01*
G01X3914521Y-3169920D02*
G01X3964521Y-3169920D01*
G01X4864519Y-10669905D02*
G01X4914519Y-10669905D01*
G01X3914521Y-10669905D02*
G01X3964521Y-10669905D01*
G01X5976201Y-3175000D02*
G01X6876199Y-3175000D01*
G01X6926199Y-3175000D02*
G01X6926199Y-10674985D01*
G01X6876199Y-10674985D02*
G01X5976201Y-10674985D01*
G01X5926201Y-10674985D02*
G01X5926201Y-3175000D01*
G01X6876199Y-3175000D02*
G01X6926199Y-3175000D01*
G01X5926201Y-3175000D02*
G01X5976201Y-3175000D01*
G01X6876199Y-10674985D02*
G01X6926199Y-10674985D01*
G01X5926201Y-10674985D02*
G01X5976201Y-10674985D01*
G01X7987881Y-3175000D02*
G01X8887879Y-3175000D01*
G01X8937879Y-3175000D02*
G01X8937879Y-10674985D01*
G01X8887879Y-10674985D02*
G01X7987881Y-10674985D01*
G01X7937881Y-10674985D02*
G01X7937881Y-3175000D01*
G01X8887879Y-3175000D02*
G01X8937879Y-3175000D01*
G01X7937881Y-3175000D02*
G01X7987881Y-3175000D01*
G01X8887879Y-10674985D02*
G01X8937879Y-10674985D01*
G01X7937881Y-10674985D02*
G01X7987881Y-10674985D01*
G54D12*
G01X4678000Y-1766400D02*
G01X4678000Y-2376000D01*
G01X4678000Y-2376000D02*
G01X6202000Y-2376000D01*
G01X6202000Y-2376000D02*
G01X6202000Y-1766400D01*
G01X6342104Y-1258400D02*
G01X6468700Y-1258400D01*
G01X5834104Y-1258400D02*
G01X6061896Y-1258400D01*
G01X5326104Y-1258400D02*
G01X5553896Y-1258400D01*
G01X4818104Y-1258400D02*
G01X5045896Y-1258400D01*
G01X6354400Y-1258400D02*
G01X6456000Y-1258400D01*
G01X6456000Y-1258400D02*
G01X6456000Y-2249000D01*
G01X6456000Y-2249000D02*
G01X6456000Y-2503000D01*
G01X6456000Y-2503000D02*
G01X4424000Y-2503000D01*
G01X4424000Y-2503000D02*
G01X4424000Y-1258400D01*
G01X4424000Y-1258400D02*
G01X4537896Y-1258400D01*

M02*

